[Header]
FileType HTR
DataType HTRS
FileVersion 1
NumSegments 64
NumFrames 3
DataFrameRate 30
EulerRotationOrder ZYX
CalibrationUnits mm
RotationUnits Degrees
GlobalAxisofGravity Y
BoneLengthAxis Y
ScaleFactor 1.0
[SegmentNames&Hierarchy]
Hips	GLOBAL
Spine	Hips
Spine1	Spine
Spine2	Spine1
Neck	Spine2
Head	Neck
LeftEye	Head
RightEye	Head
LeftShoulder	Spine2
LeftArm	LeftShoulder
LeftForeArm	LeftArm
LeftHand	LeftForeArm
LeftHandThumb1	LeftHand
LeftHandThumb2	LeftHandThumb1
LeftHandThumb3	LeftHandThumb2
LeftHandThumb4	LeftHandThumb3
LeftHandIndex1	LeftHand
LeftHandIndex2	LeftHandIndex1
LeftHandIndex3	LeftHandIndex2
LeftHandIndex4	LeftHandIndex3
LeftHandMiddle1	LeftHand
LeftHandMiddle2	LeftHandMiddle1
LeftHandMiddle3	LeftHandMiddle2
LeftHandMiddle4	LeftHandMiddle3
LeftHandRing1	LeftHand
LeftHandRing2	LeftHandRing1
LeftHandRing3	LeftHandRing2
LeftHandRing4	LeftHandRing3
LeftHandPinky1	LeftHand
LeftHandPinky2	LeftHandPinky1
LeftHandPinky3	LeftHandPinky2
LeftHandPinky4	LeftHandPinky3
RightShoulder	Spine2
RightArm	RightShoulder
RightForeArm	RightArm
RightHand	RightForeArm
RightHandPinky1	RightHand
RightHandPinky2	RightHandPinky1
RightHandPinky3	RightHandPinky2
RightHandPinky4	RightHandPinky3
RightHandRing1	RightHand
RightHandRing2	RightHandRing1
RightHandRing3	RightHandRing2
RightHandRing4	RightHandRing3
RightHandMiddle1	RightHand
RightHandMiddle2	RightHandMiddle1
RightHandMiddle3	RightHandMiddle2
RightHandMiddle4	RightHandMiddle3
RightHandIndex1	RightHand
RightHandIndex2	RightHandIndex1
RightHandIndex3	RightHandIndex2
RightHandIndex4	RightHandIndex3
RightHandThumb1	RightHand
RightHandThumb2	RightHandThumb1
RightHandThumb3	RightHandThumb2
RightHandThumb4	RightHandThumb3
LeftUpLeg	Hips
LeftLeg	LeftUpLeg
LeftFoot	LeftLeg
LeftToeBase	LeftFoot
RightUpLeg	Hips
RightLeg	RightUpLeg
RightFoot	RightLeg
RightToeBase	RightFoot
[BasePosition]
Hips	0	0	0	0	0	0	1
Spine	0	0	0	0	0	0	1
Spine1	0	0	0	0	0	0	1
Spine2	0	0	0	0	0	0	1
Neck	0	0	0	0	0	0	1
Head	0	0	0	0	0	0	1
LeftEye	0	0	0	0	0	0	1
RightEye	0	0	0	0	0	0	1
LeftShoulder	0	0	0	0	0	0	1
LeftArm	0	0	0	0	0	0	1
LeftForeArm	0	0	0	0	0	0	1
LeftHand	0	0	0	0	0	0	1
LeftHandThumb1	0	0	0	0	0	0	1
LeftHandThumb2	0	0	0	0	0	0	1
LeftHandThumb3	0	0	0	0	0	0	1
LeftHandThumb4	0	0	0	0	0	0	1
LeftHandIndex1	0	0	0	0	0	0	1
LeftHandIndex2	0	0	0	0	0	0	1
LeftHandIndex3	0	0	0	0	0	0	1
LeftHandIndex4	0	0	0	0	0	0	1
LeftHandMiddle1	0	0	0	0	0	0	1
LeftHandMiddle2	0	0	0	0	0	0	1
LeftHandMiddle3	0	0	0	0	0	0	1
LeftHandMiddle4	0	0	0	0	0	0	1
LeftHandRing1	0	0	0	0	0	0	1
LeftHandRing2	0	0	0	0	0	0	1
LeftHandRing3	0	0	0	0	0	0	1
LeftHandRing4	0	0	0	0	0	0	1
LeftHandPinky1	0	0	0	0	0	0	1
LeftHandPinky2	0	0	0	0	0	0	1
LeftHandPinky3	0	0	0	0	0	0	1
LeftHandPinky4	0	0	0	0	0	0	1
RightShoulder	0	0	0	0	0	0	1
RightArm	0	0	0	0	0	0	1
RightForeArm	0	0	0	0	0	0	1
RightHand	0	0	0	0	0	0	1
RightHandPinky1	0	0	0	0	0	0	1
RightHandPinky2	0	0	0	0	0	0	1
RightHandPinky3	0	0	0	0	0	0	1
RightHandPinky4	0	0	0	0	0	0	1
RightHandRing1	0	0	0	0	0	0	1
RightHandRing2	0	0	0	0	0	0	1
RightHandRing3	0	0	0	0	0	0	1
RightHandRing4	0	0	0	0	0	0	1
RightHandMiddle1	0	0	0	0	0	0	1
RightHandMiddle2	0	0	0	0	0	0	1
RightHandMiddle3	0	0	0	0	0	0	1
RightHandMiddle4	0	0	0	0	0	0	1
RightHandIndex1	0	0	0	0	0	0	1
RightHandIndex2	0	0	0	0	0	0	1
RightHandIndex3	0	0	0	0	0	0	1
RightHandIndex4	0	0	0	0	0	0	1
RightHandThumb1	0	0	0	0	0	0	1
RightHandThumb2	0	0	0	0	0	0	1
RightHandThumb3	0	0	0	0	0	0	1
RightHandThumb4	0	0	0	0	0	0	1
LeftUpLeg	0	0	0	0	0	0	1
LeftLeg	0	0	0	0	0	0	1
LeftFoot	0	0	0	0	0	0	1
LeftToeBase	0	0	0	0	0	0	1
RightUpLeg	0	0	0	0	0	0	1
RightLeg	0	0	0	0	0	0	1
RightFoot	0	0	0	0	0	0	1
RightToeBase	0	0	0	0	0	0	1
[Hips]
18	-36.74285126	1023.801208	-100.290329	-8.13579464	45.33288193	-4.446936607	1.0
19	-35.29879379	1026.010986	-91.65777588	-9.130483627	49.80902863	-5.367544174	1.0
20	-32.26852798	1028.25354	-81.68336487	-10.32661819	54.74051666	-6.650850296	1.0
[Spine]
18	0	101.8159943	1.315000057	3.639358997	2.442310572	2.657035112	1.0
19	0	101.8159943	1.315000057	3.869860888	2.28616786	2.663243532	1.0
20	0	101.8159943	1.315000057	4.125262737	2.091799498	2.490533113	1.0
[Spine1]
18	0	100.8349991	-10.00800037	1.237902403	1.776048899	5.009737968	1.0
19	0	100.8349991	-10.00800037	1.397998691	1.839458466	4.733426094	1.0
20	0	100.8349991	-10.00800037	1.568461418	1.798206449	4.404074669	1.0
[Spine2]
18	0	91	-13.73399925	1.169244766	1.393516898	0.867046535	1.0
19	0	91	-13.73399925	1.355964065	1.474654913	0.8728809357	1.0
20	0	91	-13.73399925	1.54790163	1.476221442	1.021469831	1.0
[Neck]
18	0	166.7169952	-25.16200066	7.309776783	5.593782425	-0.7168980837	1.0
19	0	166.7169952	-25.16200066	7.034216404	4.731944561	-0.5376537442	1.0
20	0	166.7169952	-25.16200066	6.688263416	3.82787323	-0.2787218988	1.0
[Head]
18	0	96.17900085	16.84999847	-4.171754837	22.20623398	-9.957427025	1.0
19	0	96.17900085	16.84999847	-4.438152313	19.74434662	-8.978442192	1.0
20	0	96.17900085	16.84999847	-4.802394867	16.96155739	-7.627020836	1.0
[LeftEye]
18	30.6760006	64.09500122	92.83599854	0	0	0	1.0
19	30.6760006	64.09500122	92.83599854	0	0	0	1.0
20	30.6760006	64.09500122	92.83599854	0	0	0	1.0
[RightEye]
18	-30.6760006	64.09500122	92.83499908	0	0	0	1.0
19	-30.6760006	64.09500122	92.83499908	0	0	0	1.0
20	-30.6760006	64.09500122	92.83499908	0	0	0	1.0
[LeftShoulder]
18	45.70400238	109.4599991	-26.28000069	6.636254311	-6.17343092	-21.16857719	1.0
19	45.70400238	109.4599991	-26.28000069	6.935350895	-5.098450184	-21.71757698	1.0
20	45.70400238	109.4599991	-26.28000069	7.146510601	-4.456274509	-21.95121384	1.0
[LeftArm]
18	105.923996	-5.24600029	-22.32099915	22.58851242	2.403810501	-60.61849594	1.0
19	105.923996	-5.24600029	-22.32099915	23.49738884	1.761563659	-60.76385498	1.0
20	105.923996	-5.24600029	-22.32099915	24.36824608	0.9188844562	-60.96744537	1.0
[LeftForeArm]
18	278.414978	-0.0009999999311	0	-3.093769863e-07	-21.09074593	-0.0002028279705	1.0
19	278.414978	-0.0009999999311	0	8.411531383e-08	-19.67287445	-0.0002023061679	1.0
20	278.414978	-0.0009999999311	0	2.321261036e-06	-17.98963356	-0.0002024074929	1.0
[LeftHand]
18	283.2879944	0	0	-30.54225922	-3.796219826	15.10522842	1.0
19	283.2879944	0	0	-32.72753906	-4.156419277	16.08551216	1.0
20	283.2879944	0	0	-34.86169434	-4.426808357	16.1235218	1.0
[LeftHandThumb1]
18	24.6609993	-15.75	26.8239994	-0.4889881611	2.201389551	4.818526268	1.0
19	24.6609993	-15.75	26.8239994	-0.4889881611	2.201389551	4.818526268	1.0
20	24.6609993	-15.75	26.8239994	-0.4889881611	2.201389551	4.818526268	1.0
[LeftHandThumb2]
18	32.29800034	-18.64699936	18.64699936	20.07773209	17.70823288	22.4217453	1.0
19	32.29800034	-18.64699936	18.64699936	19.33230782	17.58163834	22.1252861	1.0
20	32.29800034	-18.64699936	18.64699936	18.6833744	17.3080349	21.82942581	1.0
[LeftHandThumb3]
18	26.52600098	-15.31499958	15.31499958	-13.03099251	5.218986988	7.840869904	1.0
19	26.52600098	-15.31499958	15.31499958	-13.11137962	5.64950943	7.705113888	1.0
20	26.52600098	-15.31499958	15.31499958	-13.09808445	5.938706398	7.613775253	1.0
[LeftHandThumb4]
18	19.54599953	-11.28499985	11.28499985	0	0	0	1.0
19	19.54599953	-11.28499985	11.28499985	0	0	0	1.0
20	19.54599953	-11.28499985	11.28499985	0	0	0	1.0
[LeftHandIndex1]
18	91.09299469	-5.170999527	22.60099792	0.2037745714	-0.8058702946	-7.747169495	1.0
19	91.09299469	-5.170999527	22.60099792	0.159395799	-0.9567673802	-7.481285095	1.0
20	91.09299469	-5.170999527	22.60099792	0.1267461181	-1.0673455	-7.285923004	1.0
[LeftHandIndex2]
18	36.76399994	0	0	-0.2670781016	1.746419668	-17.38924217	1.0
19	36.76399994	0	0	-0.266898632	1.745832562	-17.3832531	1.0
20	36.76399994	0	0	-0.2668991387	1.745800495	-17.3829937	1.0
[LeftHandIndex3]
18	28.83100128	0	0	-0.05761246756	0.8186266422	-8.0511446	1.0
19	28.83100128	0	0	-0.05753177032	0.8180219531	-8.045166016	1.0
20	28.83100128	0	0	-0.05752101913	0.8180025816	-8.044891357	1.0
[LeftHandIndex4]
18	23.92700005	0	0	0	0	0	1.0
19	23.92700005	0	0	0	0	0	1.0
20	23.92700005	0	0	0	0	0	1.0
[LeftHandMiddle1]
18	95.33399963	0	0	-0.8084843159	2.993412733	-15.91633511	1.0
19	95.33399963	0	0	-0.7884235382	2.890259027	-15.62099648	1.0
20	95.33399963	0	0	-0.7720401287	2.823995829	-15.37811279	1.0
[LeftHandMiddle2]
18	36.98199844	0	0	-0.2670999765	1.746423364	-17.38943291	1.0
19	36.98199844	0	0	-0.2663743198	1.74410677	-17.36560059	1.0
20	36.98199844	0	0	-0.2657758296	1.742197394	-17.34592819	1.0
[LeftHandMiddle3]
18	29.50900078	0	0	-0.2986143827	1.844007373	-18.39550018	1.0
19	29.50900078	0	0	-0.297852248	1.841717362	-18.37181664	1.0
20	29.50900078	0	0	-0.2972281873	1.839833856	-18.35232735	1.0
[LeftHandMiddle4]
18	28.3390007	0	0	0	0	0	1.0
19	28.3390007	0	0	0	0	0	1.0
20	28.3390007	0	0	0	0	0	1.0
[LeftHandRing1]
18	91.04499817	-0.4390000105	-18.65100098	-1.202938795	3.435502291	-21.4044342	1.0
19	91.04499817	-0.4390000105	-18.65100098	-1.190211058	3.317264557	-21.23812485	1.0
20	91.04499817	-0.4390000105	-18.65100098	-1.176242232	3.221816778	-21.05462265	1.0
[LeftHandRing2]
18	31.54000092	0	0	-0.382569015	2.079368353	-20.84763145	1.0
19	31.54000092	0	0	-0.3820308447	2.077946424	-20.83272552	1.0
20	31.54000092	0	0	-0.3814717829	2.076472521	-20.81736565	1.0
[LeftHandRing3]
18	29.37700081	0	0	-0.2797813714	1.786410093	-17.80082893	1.0
19	29.37700081	0	0	-0.2793386579	1.785036087	-17.78654289	1.0
20	29.37700081	0	0	-0.278870225	1.783582449	-17.77164078	1.0
[LeftHandRing4]
18	26.47500038	0	0	0	0	0	1.0
19	26.47500038	0	0	0	0	0	1.0
20	26.47500038	0	0	0	0	0	1.0
[LeftHandPinky1]
18	80.77799988	-4.887000084	-38.06099701	-1.658513427	6.00531435	-27.01464844	1.0
19	80.77799988	-4.887000084	-38.06099701	-1.649983048	5.937905312	-26.88233376	1.0
20	80.77799988	-4.887000084	-38.06099701	-1.639804602	5.860678673	-26.72745705	1.0
[LeftHandPinky2]
18	36	0	0	-0.2655914128	1.741620183	-17.33992958	1.0
19	36	0	0	-0.2656695545	1.741867065	-17.34245872	1.0
20	36	0	0	-0.265820086	1.742350221	-17.34746552	1.0
[LeftHandPinky3]
18	21.14200211	0	0	-0.2390113324	1.654126525	-16.44296265	1.0
19	21.14200211	0	0	-0.2390803695	1.654353499	-16.44528008	1.0
20	21.14200211	0	0	-0.2392204106	1.654819489	-16.45002365	1.0
[LeftHandPinky4]
18	19.75699997	0	0	0	0	0	1.0
19	19.75699997	0	0	0	0	0	1.0
20	19.75699997	0	0	0	0	0	1.0
[RightShoulder]
18	-45.70000076	109.4620056	0	5.050969601	13.9657402	15.82904339	1.0
19	-45.70000076	109.4620056	0	5.025801182	13.86563396	15.88323021	1.0
20	-45.70000076	109.4620056	0	5.031260014	13.87243843	15.95274544	1.0
[RightArm]
18	-105.9280014	-5.248000145	-22.32099915	26.26645279	-8.54501915	48.32591248	1.0
19	-105.9280014	-5.248000145	-22.32099915	25.84278679	-7.279910564	49.86156845	1.0
20	-105.9280014	-5.248000145	-22.32099915	25.91763115	-5.499140263	51.83735657	1.0
[RightForeArm]
18	-278.414978	0	0	-1.526534334e-06	14.2641573	4.100501428e-06	1.0
19	-278.414978	0	0	9.365700862e-06	13.35990334	-6.965297871e-06	1.0
20	-278.414978	0	0	1.116111162e-05	12.3872633	-9.552722076e-06	1.0
[RightHand]
18	-283.2879944	0	0.0009999999311	-27.87922287	-11.11841106	6.594916821	1.0
19	-283.2879944	0	0.0009999999311	-26.97352219	-10.24171925	6.704185486	1.0
20	-283.2879944	0	0.0009999999311	-25.69001579	-8.6294384	6.905160904	1.0
[RightHandPinky1]
18	-80.76699829	-4.885000229	-38.06000137	-1.574455023	-4.494407654	26.89710617	1.0
19	-80.76699829	-4.885000229	-38.06000137	-1.531945944	-4.643398285	26.69904518	1.0
20	-80.76699829	-4.885000229	-38.06000137	-1.544135809	-4.596486092	26.74509048	1.0
[RightHandPinky2]
18	-36	0	0.0009999999311	-0.2172119319	-1.402996182	17.62073517	1.0
19	-36	0	0.0009999999311	-0.2149823904	-1.395924568	17.52916527	1.0
20	-36	0	0.0009999999311	-0.2130885571	-1.389901996	17.45121193	1.0
[RightHandPinky3]
18	-21.14200211	0	0	-0.1960317641	-1.334403634	16.71446609	1.0
19	-21.14200211	0	0	-0.1939953268	-1.327590585	16.62646103	1.0
20	-21.14200211	0	0	-0.1921727806	-1.3214674	16.54744339	1.0
[RightHandPinky4]
18	-19.75699997	0	0	0	0	0	1.0
19	-19.75699997	0	0	0	0	0	1.0
20	-19.75699997	0	0	0	0	0	1.0
[RightHandRing1]
18	-91.03599548	-0.4390000105	-18.65100098	-1.087401032	-2.758255959	21.11691093	1.0
19	-91.03599548	-0.4390000105	-18.65100098	-1.073961735	-2.783800364	20.91454887	1.0
20	-91.03599548	-0.4390000105	-18.65100098	-1.077842355	-2.764546394	20.97343826	1.0
[RightHandRing2]
18	-31.54000092	0	0	-0.3067875803	-1.659016252	20.95279312	1.0
19	-31.54000092	0	0	-0.3065793216	-1.658456683	20.94548607	1.0
20	-31.54000092	0	0	-0.3065649569	-1.658420682	20.94496346	1.0
[RightHandRing3]
18	-29.37700081	0	0	-0.2246346474	-1.426154256	17.90145683	1.0
19	-29.37700081	0	0	-0.2244487107	-1.425587773	17.89407158	1.0
20	-29.37700081	0	0	-0.2244393528	-1.42554462	17.89354515	1.0
[RightHandRing4]
18	-26.47500038	0	0	0	0	0	1.0
19	-26.47500038	0	0	0	0	0	1.0
20	-26.47500038	0	0	0	0	0	1.0
[RightHandMiddle1]
18	-95.32500458	0	0	-0.699401021	-2.305687428	14.97082329	1.0
19	-95.32500458	0	0	-0.6906672716	-2.266910553	14.82488155	1.0
20	-95.32500458	0	0	-0.6952539682	-2.257306814	14.90222263	1.0
[RightHandMiddle2]
18	-36.98199844	0	0	-0.2139997482	-1.392847776	17.46969986	1.0
19	-36.98199844	0	0	-0.2131410986	-1.390119553	17.4342823	1.0
20	-36.98199844	0	0	-0.2130316049	-1.389741898	17.42932892	1.0
[RightHandMiddle3]
18	-29.50900078	0	0	-0.2392038107	-1.472492933	18.47788811	1.0
19	-29.50900078	0	0	-0.2383052558	-1.469779253	18.44259071	1.0
20	-29.50900078	0	0	-0.2381855547	-1.469412446	18.43772316	1.0
[RightHandMiddle4]
18	-28.3390007	0	0.0009999999311	0	0	0	1.0
19	-28.3390007	0	0.0009999999311	0	0	0	1.0
20	-28.3390007	0	0.0009999999311	0	0	0	1.0
[RightHandIndex1]
18	-91.08300018	-5.167999744	22.60099792	0.1892680079	1.147045851	7.442109585	1.0
19	-91.08300018	-5.167999744	22.60099792	0.2025267482	1.159521341	7.223498344	1.0
20	-91.08300018	-5.167999744	22.60099792	0.1876014769	1.170399427	7.322956085	1.0
[RightHandIndex2]
18	-36.76399994	0	0	-0.2128343433	-1.389123201	17.42133141	1.0
19	-36.76399994	0	0	-0.2137119472	-1.391908169	17.45745277	1.0
20	-36.76399994	0	0	-0.213512525	-1.391234636	17.44887161	1.0
[RightHandIndex3]
18	-28.83100128	0	0	-0.04592612758	-0.6512119174	8.067187309	1.0
19	-28.83100128	0	0	-0.0463430956	-0.6541050076	8.103290558	1.0
20	-28.83100128	0	0	-0.04624313116	-0.6534195542	8.094717026	1.0
[RightHandIndex4]
18	-23.92700005	0	0	0	0	0	1.0
19	-23.92700005	0	0	0	0	0	1.0
20	-23.92700005	0	0	0	0	0	1.0
[RightHandThumb1]
18	-24.64799881	-15.72700024	26.82600021	-1.658465981	-0.2891423702	-4.221325874	1.0
19	-24.64799881	-15.72700024	26.82600021	-1.658465981	-0.2891423702	-4.221325874	1.0
20	-24.64799881	-15.72700024	26.82600021	-1.658465981	-0.2891423702	-4.221325874	1.0
[RightHandThumb2]
18	-32.29800034	-18.64699936	18.64699936	22.74570656	-22.8180294	-23.86368561	1.0
19	-32.29800034	-18.64699936	18.64699936	22.71304321	-22.82939911	-23.92404938	1.0
20	-32.29800034	-18.64699936	18.64699936	22.76124191	-22.79722404	-23.91160202	1.0
[RightHandThumb3]
18	-26.52600098	-15.31399918	15.31399918	-14.49406338	-6.706166267	-11.3788166	1.0
19	-26.52600098	-15.31399918	15.31399918	-14.50145817	-6.721764565	-11.37136269	1.0
20	-26.52600098	-15.31399918	15.31399918	-14.50222969	-6.722888947	-11.37213993	1.0
[RightHandThumb4]
18	-19.54599953	-11.28499985	11.28499985	0	0	0	1.0
19	-19.54599953	-11.28499985	11.28499985	0	0	0	1.0
20	-19.54599953	-11.28499985	11.28499985	0	0	0	1.0
[LeftUpLeg]
18	82.07800293	-67.51699829	-15.99599934	-12.03082657	35.23305511	3.967787981	1.0
19	82.07800293	-67.51699829	-15.99599934	-11.70156288	35.26672745	4.160532475	1.0
20	82.07800293	-67.51699829	-15.99599934	-11.53759384	35.27516937	4.332148552	1.0
[LeftLeg]
18	0	-443.7049866	2.845999956	21.27183533	6.44417429	10.33696461	1.0
19	0	-443.7049866	2.845999956	19.91769981	6.532557011	10.53496456	1.0
20	0	-443.7049866	2.845999956	18.52906036	6.723961353	10.62794781	1.0
[LeftFoot]
18	0	-444.2789917	-29.8219986	-3.779071093	12.58787155	-6.565872669	1.0
19	0	-444.2789917	-29.8219986	-2.718929291	8.043943405	-6.180758476	1.0
20	0	-444.2789917	-29.8219986	-1.688534141	2.987474442	-5.897533417	1.0
[LeftToeBase]
18	0	-87.28699493	107.1060028	-4.928526878	-4.328493105e-06	2.496465868e-06	1.0
19	0	-87.28699493	107.1060028	-4.928525448	-1.143121608e-05	2.315651045e-06	1.0
20	0	-87.28699493	107.1060028	-4.928524494	-2.091631359e-05	1.490414434e-06	1.0
[RightUpLeg]
18	-82.07800293	-67.51699829	-15.99599934	-19.28260231	-18.66961479	1.270650864	1.0
19	-82.07800293	-67.51699829	-15.99599934	-18.21843529	-15.05195332	2.403684139	1.0
20	-82.07800293	-67.51699829	-15.99599934	-16.62976837	-10.89419079	3.653499842	1.0
[RightLeg]
18	0	-443.7049866	2.861999989	40.77083588	-1.146139979	1.19543314	1.0
19	0	-443.7049866	2.861999989	36.71446228	0.5828248262	-0.0115765091	1.0
20	0	-443.7049866	2.861999989	31.18137169	1.734050274	-2.528768063	1.0
[RightFoot]
18	0	-444.2770081	-29.83799934	8.271978378	-27.69979095	-1.965614796	1.0
19	0	-444.2770081	-29.83799934	7.536031723	-26.8868866	0.5208849311	1.0
20	0	-444.2770081	-29.83799934	4.929989338	-26.24174881	3.410382271	1.0
[RightToeBase]
18	0	-87.28699493	107.1060028	-11.62296867	0.8505460024	6.298826694	1.0
19	0	-87.28699493	107.1060028	-11.07347584	0.7673918605	5.824846268	1.0
20	0	-87.28699493	107.1060028	-8.901693344	0.3611567914	2.8267591	1.0
[EndOfFile]
